<svg width="24" height="24" viewBox="0 0 24 24" fill="none" xmlns="http://www.w3.org/2000/svg">
<path d="M19.8571 2H4.14286C2.95982 2 2 2.95982 2 4.14286V19.8571C2 21.0402 2.95982 22 4.14286 22H19.8571C21.0402 22 22 21.0402 22 19.8571V4.14286C22 2.95982 21.0402 2 19.8571 2ZM14.3795 19.1295C14.0045 19.1964 13.8661 18.9643 13.8661 18.7723C13.8661 18.5312 13.875 17.2991 13.875 16.3036C13.875 15.6071 13.6429 15.1652 13.3705 14.933C15.0223 14.75 16.7634 14.5223 16.7634 11.6696C16.7634 10.8571 16.4732 10.4509 16 9.92857C16.0759 9.73661 16.3304 8.94643 15.9241 7.91964C15.3036 7.72768 13.8839 8.71875 13.8839 8.71875C13.2946 8.55357 12.6563 8.46875 12.0268 8.46875C11.3973 8.46875 10.7589 8.55357 10.1696 8.71875C10.1696 8.71875 8.75 7.72768 8.12946 7.91964C7.72321 8.94196 7.97321 9.73214 8.05357 9.92857C7.58036 10.4509 7.35714 10.8571 7.35714 11.6696C7.35714 14.5089 9.02232 14.75 10.6741 14.933C10.4598 15.125 10.2679 15.4554 10.2009 15.9286C9.77679 16.1205 8.69196 16.4509 8.04464 15.308C7.63839 14.6027 6.90625 14.5446 6.90625 14.5446C6.18304 14.5357 6.85714 15 6.85714 15C7.33929 15.2232 7.67857 16.0804 7.67857 16.0804C8.11161 17.4062 10.183 16.9598 10.183 16.9598C10.183 17.5804 10.192 18.5893 10.192 18.7723C10.192 18.9643 10.058 19.1964 9.67857 19.1295C6.73214 18.1429 4.66964 15.3393 4.66964 12.0625C4.66964 7.96429 7.80357 4.85268 11.9018 4.85268C16 4.85268 19.3214 7.96429 19.3214 12.0625C19.3259 15.3393 17.3259 18.1473 14.3795 19.1295ZM10 16.4018C9.91518 16.4196 9.83482 16.3839 9.82589 16.3259C9.81696 16.2589 9.875 16.2009 9.95982 16.183C10.0446 16.1741 10.125 16.2098 10.1339 16.2679C10.1473 16.3259 10.0893 16.3839 10 16.4018ZM9.57589 16.3616C9.57589 16.4196 9.50893 16.4688 9.41964 16.4688C9.32143 16.4777 9.25446 16.4286 9.25446 16.3616C9.25446 16.3036 9.32143 16.2545 9.41071 16.2545C9.49554 16.2455 9.57589 16.2946 9.57589 16.3616ZM8.96429 16.3125C8.94643 16.3705 8.85714 16.3973 8.78125 16.3705C8.69643 16.3527 8.63839 16.2857 8.65625 16.2277C8.67411 16.1696 8.76339 16.1429 8.83929 16.1607C8.92857 16.1875 8.98661 16.2545 8.96429 16.3125ZM8.41518 16.0714C8.375 16.1205 8.29018 16.1116 8.22321 16.0446C8.15625 15.9866 8.13839 15.9018 8.18304 15.8616C8.22321 15.8125 8.30804 15.8214 8.375 15.8884C8.43304 15.9464 8.45536 16.0357 8.41518 16.0714ZM8.00893 15.6652C7.96875 15.692 7.89286 15.6652 7.84375 15.5982C7.79464 15.5313 7.79464 15.4554 7.84375 15.4241C7.89286 15.3839 7.96875 15.4152 8.00893 15.4821C8.05804 15.5491 8.05804 15.6295 8.00893 15.6652ZM7.71875 15.2321C7.67857 15.2723 7.61161 15.25 7.5625 15.2054C7.51339 15.1473 7.50446 15.0804 7.54464 15.0491C7.58482 15.0089 7.65179 15.0312 7.70089 15.0759C7.75 15.1339 7.75893 15.2009 7.71875 15.2321ZM7.41964 14.9018C7.40179 14.942 7.34375 14.9509 7.29464 14.9196C7.23661 14.8929 7.20982 14.8438 7.22768 14.8036C7.24554 14.7768 7.29464 14.7634 7.35268 14.7857C7.41071 14.817 7.4375 14.8661 7.41964 14.9018Z" fill="#56A3A6"/>
</svg>
